<svg width="64" height="64" viewBox="0 0 64 64" fill="none" xmlns="http://www.w3.org/2000/svg">
<rect width="64" height="64" rx="15" fill="#6654D4"/>
<path d="M50.8838 19.3453C50.8838 18.9916 50.5971 18.7053 50.2438 18.7053H33.3426H31.4195H12.4262C12.0724 18.7053 11.7861 18.9916 11.7861 19.3453V30.3879C11.7861 30.4186 11.7908 30.448 11.7951 30.4775C11.7908 30.5069 11.7861 30.5364 11.7861 30.5671V44.6542C11.7861 45.0075 12.0724 45.2942 12.4262 45.2942H31.4195H50.2438C50.5971 45.2942 50.8838 45.0075 50.8838 44.6542V30.5005C50.8838 30.4813 50.88 30.463 50.8783 30.4442C50.88 30.4254 50.8838 30.4071 50.8838 30.3879V19.3453ZM33.3426 19.9854H49.6037V29.7478H44.4739L41.3829 24.5391C41.2673 24.345 41.0582 24.2259 40.8325 24.2259C40.6067 24.2259 40.3972 24.345 40.282 24.5391L37.1901 29.7478H33.3426H32.0595V19.9854H33.3426ZM13.0662 19.9854H30.7794V29.7478H25.4802L22.3879 24.5391C22.2723 24.3445 22.0632 24.2259 21.8375 24.2259C21.6113 24.2259 21.4022 24.345 21.287 24.5391L18.1964 29.7478H13.0662V19.9854ZM13.0662 31.0279H18.5608C18.7866 31.0279 18.9961 30.9089 19.1113 30.7147L21.8379 26.12L24.5654 30.7147C24.681 30.9089 24.8901 31.0279 25.1158 31.0279H30.7794V44.0145H13.0662V31.0279ZM32.0595 44.0145V31.0279H33.3426H37.5541C37.7798 31.0279 37.9893 30.9089 38.1046 30.7147L40.8325 26.12L43.5591 30.7147C43.6747 30.9089 43.8838 31.0279 44.1095 31.0279H49.6041V44.0145H32.0595Z" fill="white"/>
<path d="M43.1508 34.6608H38.5138C38.1605 34.6608 37.8738 34.9476 37.8738 35.3009V40.1828C37.8738 40.5361 38.1605 40.8228 38.5138 40.8228H43.1508C43.5041 40.8228 43.7908 40.5361 43.7908 40.1828V35.3009C43.7908 34.9476 43.5045 34.6608 43.1508 34.6608ZM42.5107 39.5431H39.1539V35.9414H42.5107V39.5431Z" fill="white"/>
<path d="M24.2419 34.66H19.6037C19.2499 34.66 18.9636 34.9467 18.9636 35.3V40.1823C18.9636 40.5356 19.2499 40.8224 19.6037 40.8224H24.2419C24.5956 40.8224 24.882 40.5356 24.882 40.1823V35.3C24.882 34.9467 24.5956 34.66 24.2419 34.66ZM23.6019 39.5427H20.2437V35.9405H23.6019V39.5427Z" fill="white"/>
</svg>
