<svg width="64" height="64" viewBox="0 0 64 64" fill="none" xmlns="http://www.w3.org/2000/svg">
<rect width="64" height="64" rx="15" fill="#6654D4"/>
<path d="M46.9982 24.9407L43.6914 15.0212C43.6047 14.7609 43.361 14.5853 43.0864 14.5853H19.9451C19.6704 14.5853 19.4268 14.7609 19.34 15.0212L16.0332 24.9407C16.0115 25.0058 16.0005 25.0738 16.0005 25.1427V48.281C16.0005 48.6335 16.2858 48.9188 16.6383 48.9188H46.3932C46.7457 48.9188 47.031 48.6335 47.031 48.281V25.1427C47.031 25.0742 47.0199 25.0062 46.9982 24.9407ZM45.5653 24.6767C44.2905 25.6415 43.0205 26.0624 41.3626 26.0624C39.8489 26.0624 38.3874 25.5943 37.1123 24.7158V15.8609H42.6263L45.5653 24.6767ZM27.1944 15.8609H35.8366V24.7158C34.561 25.5943 33.1 26.0624 31.5867 26.0624C30.0118 26.0624 28.501 25.5556 27.194 24.6048L27.1944 15.8609ZM20.4047 15.8609H25.9188V24.6052C24.6121 25.5556 23.1018 26.0624 21.526 26.0624C20.045 26.0624 18.6329 25.6393 17.4105 24.8421L20.4047 15.8609ZM17.2761 47.6428V26.2461C18.5704 26.9596 20.0178 27.3376 21.5264 27.3376C23.3284 27.3376 25.0577 26.7814 26.557 25.7248C28.0567 26.7814 29.786 27.3376 31.5876 27.3376C33.3262 27.3376 35.0067 26.8184 36.4753 25.8315C37.9435 26.818 39.6239 27.3376 41.3634 27.3376C43.0481 27.3376 44.4368 26.9456 45.7558 26.0981V47.6428H17.2761Z" fill="white"/>
<path d="M31.4867 30.2622C28.1501 30.2622 25.436 33.4903 25.436 37.4579C25.436 41.4259 28.1505 44.6541 31.4867 44.6541C34.8228 44.6541 37.5373 41.4259 37.5373 37.4579C37.5377 33.4903 34.8232 30.2622 31.4867 30.2622ZM26.7116 37.4579C26.7116 34.5138 28.4558 32.0723 30.729 31.6199C30.3225 32.7492 29.6183 34.8982 29.7438 35.9208C29.8258 36.5871 30.3042 37.2721 30.8102 37.9971C31.1627 38.5018 31.5619 39.0737 31.6244 39.4096C31.7392 40.027 31.371 41.9817 31.0525 43.3517C28.6225 43.0778 26.7116 40.5406 26.7116 37.4579ZM32.3796 43.2709C32.6505 42.0603 33.0412 40.0525 32.8779 39.1753C32.7644 38.5686 32.3231 37.9359 31.8558 37.2666C31.4982 36.7542 31.053 36.1164 31.0096 35.7648C30.9212 35.0432 31.61 32.8844 32.099 31.5918C34.4435 31.966 36.2621 34.4509 36.2621 37.4575C36.2621 40.3438 34.5868 42.7504 32.3796 43.2709Z" fill="white"/>
</svg>
