<svg width="64" height="64" viewBox="0 0 64 64" fill="none" xmlns="http://www.w3.org/2000/svg">
<rect width="64" height="64" rx="15" fill="#6654D4"/>
<path d="M38.7343 32.2723H32.0641C31.7104 32.2723 31.4241 31.9855 31.4241 31.6322V25.8334C31.4241 25.4796 31.7104 25.1933 32.0641 25.1933C32.4174 25.1933 32.7042 25.4796 32.7042 25.8334V30.9917H38.0942V25.7403C38.0942 25.3866 38.381 25.1003 38.7343 25.1003C39.0876 25.1003 39.3743 25.3866 39.3743 25.7403V31.6318C39.3743 31.9855 39.0876 32.2723 38.7343 32.2723Z" fill="white"/>
<path d="M40.1932 27.5828C40.046 27.5828 39.8988 27.5325 39.7776 27.4292L35.4394 23.722L31.1988 27.4117C30.9321 27.6434 30.5276 27.6152 30.2955 27.349C30.0638 27.0823 30.0915 26.6778 30.3582 26.4456L35.0152 22.3937C35.2546 22.1863 35.6096 22.1842 35.8511 22.3903L40.6093 26.4563C40.8781 26.6859 40.9097 27.09 40.6801 27.3588C40.5538 27.5069 40.3741 27.5828 40.1932 27.5828Z" fill="white"/>
<path d="M35.4679 40.0556C32.3812 40.0556 29.4382 38.9415 27.1097 36.8759C21.9031 32.2564 21.4248 24.2622 26.0434 19.056C28.2793 16.5334 31.3644 15.0335 34.7297 14.8317C38.1011 14.6312 41.338 15.7517 43.8603 17.9884C46.3834 20.2252 47.8841 23.3111 48.0855 26.6769C48.2873 30.0423 47.1663 33.2848 44.9292 35.807C42.692 38.3296 39.6061 39.8303 36.2403 40.0317C35.9821 40.0475 35.7248 40.0556 35.4679 40.0556ZM35.4995 16.0883C35.2695 16.0883 35.0382 16.0952 34.8066 16.1092C31.7821 16.2902 29.0103 17.6385 27.0014 19.9052C22.8508 24.5835 23.281 31.767 27.9593 35.9179C30.2255 37.9285 33.1441 38.9326 36.1639 38.7542C39.1888 38.5729 41.9615 37.2245 43.9721 34.9579C45.9823 32.6912 46.9893 29.7773 46.8079 26.7533C46.6266 23.7288 45.2786 20.9561 43.0116 18.9459C40.9182 17.0898 38.2735 16.0883 35.4995 16.0883Z" fill="white"/>
<path d="M25.3031 39.7331C25.1521 39.7331 25.0006 39.6802 24.8786 39.5718C24.614 39.3371 24.5897 38.933 24.8244 38.6685L27.0948 36.1083C27.3295 35.8446 27.734 35.819 27.9982 36.0541C28.2627 36.2888 28.287 36.6929 28.0523 36.9574L25.7819 39.5176C25.6556 39.6601 25.4798 39.7331 25.3031 39.7331Z" fill="white"/>
<path d="M18.7644 49.1909C18.6074 49.1909 18.455 49.1329 18.3377 49.0279L16.1048 47.0297C15.8415 46.7937 15.8189 46.3892 16.0548 46.1259L23.1611 38.1842C23.3958 37.9213 23.799 37.8983 24.0627 38.1321L26.3033 40.121C26.4305 40.234 26.5077 40.3932 26.5175 40.563C26.5273 40.7329 26.4689 40.8997 26.3554 41.0264L19.2414 48.9775C19.1284 49.1043 18.9696 49.1807 18.7998 49.19C18.7879 49.1905 18.7763 49.1909 18.7644 49.1909ZM17.4352 46.5027L18.714 47.6471L24.9724 40.6518L23.6894 39.5125L17.4352 46.5027Z" fill="white"/>
</svg>
