<svg width="64" height="64" viewBox="0 0 64 64" fill="none" xmlns="http://www.w3.org/2000/svg">
<rect width="64" height="64" rx="15" fill="#6654D4"/>
<path d="M49.0131 31.4218C48.9261 31.1607 48.6816 30.9844 48.4059 30.9844H36.2949C36.0192 30.9844 35.7747 31.1607 35.6877 31.4218L35.2042 32.8713V22.1791H36.5121C36.8654 22.1791 37.1521 21.8927 37.1521 21.539V18.1066C37.1521 17.7529 36.8654 17.4666 36.5121 17.4666H34.6316V15.0745C34.6316 14.7208 34.3449 14.4344 33.9916 14.4344H16.3432C15.9895 14.4344 15.7032 14.7208 15.7032 15.0745V17.4666H13.8214C13.4677 17.4666 13.1814 17.7529 13.1814 18.1066V21.539C13.1814 21.8927 13.4677 22.1791 13.8214 22.1791H15.0247V48.9255C15.0247 49.2788 15.3111 49.5655 15.6648 49.5655H34.5646H50.1366C50.4899 49.5655 50.7766 49.2788 50.7766 48.9255V36.9177C50.8517 36.7137 49.0131 31.4218 49.0131 31.4218ZM49.3528 36.4867C48.7963 36.8157 48.167 36.9902 47.5039 36.9902C46.825 36.9902 46.1708 36.7863 45.5863 36.4172V32.2645H47.9446L49.3528 36.4867ZM40.3963 32.2645H44.3062V36.4176C43.7212 36.7863 43.0666 36.9907 42.3877 36.9907C41.6794 36.9907 40.9971 36.7799 40.3963 36.3788V32.2645ZM36.7561 32.2645H39.1158V36.3771C38.5124 36.779 37.8289 36.9902 37.1218 36.9902C36.4869 36.9902 35.8806 36.823 35.3378 36.517L36.7561 32.2645ZM16.9833 15.7145H33.3519V17.4666H16.9833V15.7145ZM14.4615 18.7467H16.3432H33.992H35.8724V20.899H34.5646H15.6648H14.4615V18.7467ZM16.3048 22.1791H33.9246V48.2854H16.3048V22.1791ZM35.2047 48.2854V37.8842C35.8059 38.1381 36.4536 38.2703 37.1223 38.2703C38.0572 38.2703 38.9588 38.0015 39.7554 37.4895C40.5495 38.0015 41.4507 38.2703 42.3877 38.2703C43.2928 38.2703 44.1688 38.0194 44.9466 37.5403C45.7237 38.0194 46.5993 38.2703 47.5039 38.2703C48.1934 38.2703 48.8731 38.124 49.4965 37.8492V48.2854H35.2047Z" fill="white"/>
<path d="M27.9763 25.4877H22.3605C22.0068 25.4877 21.7205 25.774 21.7205 26.1277V39.7296C21.7205 40.0829 22.0068 40.3697 22.3605 40.3697H27.9763C28.33 40.3697 28.6164 40.0829 28.6164 39.7296V26.1277C28.6164 25.774 28.3296 25.4877 27.9763 25.4877ZM27.3363 39.0896H23.0006V26.7678H27.3363V39.0896Z" fill="white"/>
</svg>
