<svg width="64" height="64" viewBox="0 0 64 64" fill="none" xmlns="http://www.w3.org/2000/svg">
<rect width="64" height="64" rx="15" fill="#6654D4"/>
<path d="M49.2652 28.7621L31.4853 13.5674C31.2451 13.3621 30.8901 13.3633 30.6524 13.5708L13.2509 28.7111C12.9852 28.9424 12.9571 29.345 13.1884 29.6108C13.4197 29.8765 13.8228 29.9042 14.0882 29.6733L17.8376 26.4111V46.7665C17.8376 47.1185 18.1229 47.4043 18.4754 47.4043H43.3944C43.7465 47.4043 44.0322 47.1185 44.0322 46.7665V25.9681L48.4361 29.7315C48.5564 29.8344 48.7035 29.8846 48.8502 29.8846C49.0305 29.8846 49.2095 29.8089 49.3358 29.6614C49.5646 29.3935 49.5331 28.9908 49.2652 28.7621ZM42.7566 46.1291H19.1132V25.3013L31.0746 14.8941L42.7566 24.8778V46.1291Z" fill="white"/>
<path d="M24.2229 27.5719V39.8093C24.2229 40.1614 24.5082 40.4471 24.8607 40.4471H37.0972C37.4493 40.4471 37.735 40.1614 37.735 39.8093V27.5719C37.735 27.2195 37.4493 26.9341 37.0972 26.9341H24.8607C24.5086 26.9341 24.2229 27.2195 24.2229 27.5719ZM31.6635 39.1715V34.3289H36.4594V39.1715H31.6635ZM36.4598 33.0532H31.6635V28.2098H36.4594L36.4598 33.0532ZM25.4985 28.2098H30.3879V33.4546C30.3586 33.5278 30.3416 33.6073 30.3416 33.691C30.3416 33.7748 30.3586 33.8543 30.3879 33.9275V39.1711H25.4985V28.2098Z" fill="white"/>
</svg>
