<svg width="64" height="64" viewBox="0 0 64 64" fill="none" xmlns="http://www.w3.org/2000/svg">
<rect width="64" height="64" rx="15" fill="#6654D4"/>
<path d="M31.2524 17.2348C23.3628 17.2348 16.9443 23.6537 16.9443 31.5429C16.9443 39.4321 23.3632 45.851 31.2524 45.851C39.1421 45.851 45.5609 39.4321 45.5609 31.5429C45.5609 23.6537 39.1421 17.2348 31.2524 17.2348ZM31.2524 44.3173C24.2085 44.3173 18.4776 38.5868 18.4776 31.5429C18.4776 24.499 24.2085 18.7681 31.2524 18.7681C38.2963 18.7681 44.0268 24.499 44.0268 31.5429C44.0268 38.5868 38.2963 44.3173 31.2524 44.3173Z" fill="white"/>
<path d="M34.8679 29.2184L31.7818 32.3045V21.3274C31.7818 20.9039 31.4382 20.5608 31.0147 20.5608C30.5912 20.5608 30.248 20.9039 30.248 21.3274V34.1554C30.248 34.206 30.2531 34.2566 30.2634 34.3063C30.2676 34.328 30.2757 34.348 30.2821 34.3693C30.2897 34.3961 30.2961 34.4233 30.3072 34.4496C30.3178 34.4751 30.3322 34.4981 30.3454 34.5223C30.356 34.5423 30.365 34.5627 30.3777 34.5819C30.4339 34.6661 30.5066 34.7383 30.5908 34.7949C30.6065 34.8055 30.6235 34.8123 30.6397 34.8213C30.6669 34.8366 30.6932 34.8527 30.7226 34.8651C30.7455 34.8744 30.7698 34.8799 30.7932 34.8872C30.8174 34.8944 30.8404 34.9038 30.8654 34.9084C30.9148 34.9182 30.9649 34.9237 31.0151 34.9237C31.0653 34.9237 31.1155 34.9186 31.1648 34.9084C31.1899 34.9033 31.2133 34.8944 31.2375 34.8867C31.2609 34.8795 31.2847 34.8744 31.3077 34.8651C31.3374 34.8527 31.3646 34.8361 31.3923 34.8204C31.408 34.8115 31.4242 34.8051 31.4395 34.7949C31.4824 34.7664 31.5224 34.7341 31.5581 34.6975L35.9526 30.303C36.2519 30.0037 36.2519 29.5181 35.9526 29.2188C35.6528 28.9186 35.1676 28.9186 34.8679 29.2184Z" fill="white"/>
<path d="M31.2528 13.8455C21.4944 13.8455 13.5554 21.7845 13.5554 31.5433C13.5554 41.3022 21.4944 49.2407 31.2528 49.2407C41.0112 49.2407 48.9506 41.3017 48.9506 31.5433C48.9506 21.7849 41.0112 13.8455 31.2528 13.8455ZM31.2528 47.7066C22.3401 47.7066 15.0887 40.4556 15.0887 31.5429C15.0887 22.6302 22.3397 15.3788 31.2528 15.3788C40.1659 15.3788 47.4165 22.6302 47.4165 31.5429C47.4165 40.4556 40.1655 47.7066 31.2528 47.7066Z" fill="white"/>
</svg>
