<svg width="64" height="64" viewBox="0 0 64 64" fill="none" xmlns="http://www.w3.org/2000/svg">
<rect width="64" height="64" rx="15" fill="#6654D4"/>
<path d="M45.5642 17.5579H17.1059C16.7521 17.5579 16.4658 17.8442 16.4658 18.198V30.2416C16.4658 30.5953 16.7521 30.8816 17.1059 30.8816H19.3004V45.802C19.3004 46.1554 19.5867 46.4421 19.9404 46.4421H43.0019C43.3552 46.4421 43.6419 46.1554 43.6419 45.802V30.8816H45.5642C45.9175 30.8816 46.2042 30.5953 46.2042 30.2416V18.198C46.2042 17.8442 45.9175 17.5579 45.5642 17.5579ZM42.3618 45.162H20.5805V30.8816H27.4555C27.6693 30.8816 27.8694 30.775 27.988 30.5966L31.4712 25.3734L34.9543 30.5966C35.0729 30.7745 35.273 30.8816 35.4868 30.8816H42.3614L42.3618 45.162ZM44.9241 29.6015H35.8295L32.0037 23.8645C31.766 23.5083 31.1759 23.5087 30.9386 23.8645L27.1128 29.6015H17.7459V18.838H44.9241V29.6015Z" fill="white"/>
<path d="M34.4223 33.016H28.5202C28.1664 33.016 27.8801 33.3027 27.8801 33.656V42.5117C27.8801 42.8651 28.1664 43.1518 28.5202 43.1518H34.4227C34.776 43.1518 35.0628 42.8651 35.0628 42.5117V33.656C35.0623 33.3027 34.7756 33.016 34.4223 33.016ZM33.7822 41.8717H29.1602V34.2961H33.7827L33.7822 41.8717Z" fill="white"/>
</svg>
