<svg width="64" height="64" viewBox="0 0 64 64" fill="none" xmlns="http://www.w3.org/2000/svg">
<rect width="64" height="64" rx="15" fill="#6654D4"/>
<path d="M46.7256 21.5705C47.0777 21.5705 47.3634 21.2852 47.3634 20.9327V15.2711C47.3634 14.9186 47.0777 14.6333 46.7256 14.6333H15.3992C15.0467 14.6333 14.7614 14.9186 14.7614 15.2711V20.9327C14.7614 21.2852 15.0467 21.5705 15.3992 21.5705H17.6864V25.6767H15.4468C15.0943 25.6767 14.809 25.962 14.809 26.3145V28.7679C14.809 29.1204 15.0943 29.4057 15.4468 29.4057H17.6864V40.2041H15.3048C14.9523 40.2041 14.667 40.4899 14.667 40.842V46.5031C14.667 46.8552 14.9523 47.1409 15.3048 47.1409H46.6312C46.9833 47.1409 47.269 46.8552 47.269 46.5031V40.842C47.269 40.4899 46.9833 40.2041 46.6312 40.2041H44.6272V21.5705H46.7256ZM16.037 15.9089H46.0878V20.2949H35.4029H26.7219H16.037V15.9089ZM27.3597 21.5705H34.7651V28.4133H27.3597V21.5705ZM18.962 21.5705H26.0841V26.9978H23.4134V26.3145C23.4134 25.962 23.1281 25.6767 22.7756 25.6767H18.962V21.5705ZM16.0846 26.9523H22.1378V28.1301H16.0846V26.9523ZM45.9934 45.8657H15.9426V41.4798H45.9934V45.8657ZM28.0286 37.0258V34.6059H34.2901V37.0258C34.2901 38.5663 32.8857 39.8193 31.1594 39.8193C29.433 39.8193 28.0286 38.5663 28.0286 37.0258ZM43.3516 40.2041H33.9032C34.9147 39.4579 35.5657 38.3116 35.5657 37.0253V33.9677C35.5657 33.6156 35.28 33.3299 34.9279 33.3299H27.3908C27.0383 33.3299 26.753 33.6156 26.753 33.9677V37.0253C26.753 38.3111 27.404 39.4579 28.4155 40.2041H18.962V29.4057H22.7756C23.1281 29.4057 23.4134 29.1204 23.4134 28.7679V28.2734H26.0841V29.0511C26.0841 29.4036 26.3694 29.6889 26.7219 29.6889H35.4029C35.7549 29.6889 36.0407 29.4036 36.0407 29.0511V21.5705H43.3512L43.3516 40.2041Z" fill="white"/>
</svg>
