<svg width="64" height="64" viewBox="0 0 64 64" fill="none" xmlns="http://www.w3.org/2000/svg">
<rect width="64" height="64" rx="15" fill="#6654D4"/>
<path d="M44.9373 20.0935C44.936 20.0719 44.9339 20.0507 44.9309 20.0296C44.9275 20.0088 44.9237 19.9885 44.9186 19.9686C44.9135 19.9487 44.9076 19.9288 44.9004 19.9097C44.8932 19.8902 44.8856 19.8712 44.8763 19.8525C44.8674 19.8343 44.8581 19.8169 44.8475 19.8C44.8369 19.7822 44.8255 19.7653 44.8132 19.7488C44.8009 19.7327 44.7882 19.717 44.7746 19.7022C44.7611 19.6873 44.7471 19.6729 44.7323 19.6594C44.717 19.6454 44.7014 19.6323 44.6844 19.62C44.6683 19.6081 44.6522 19.5967 44.6349 19.5865C44.6171 19.5755 44.5989 19.5658 44.5802 19.5569C44.5616 19.548 44.543 19.54 44.5235 19.5328C44.504 19.5256 44.4845 19.5196 44.4642 19.5145C44.4434 19.509 44.4223 19.5048 44.4007 19.5014C44.3896 19.4997 44.3795 19.4959 44.3685 19.4951C39.3218 18.9902 35.3749 17.964 31.2981 14.4149C31.0334 14.1845 30.6315 14.2125 30.4019 14.4767C30.3871 14.4937 30.3761 14.5127 30.3634 14.5309C26.2637 18.0682 22.8399 19.0097 17.9838 19.4946C17.659 19.5273 17.4116 19.8004 17.4116 20.127V35.0058C17.4116 35.0621 17.4192 35.118 17.4341 35.1722C20.0104 44.6735 30.4007 49.1875 30.8416 49.3751C30.9212 49.409 31.0059 49.4259 31.0902 49.4259C31.1736 49.4259 31.2579 49.4094 31.3362 49.3763C31.7826 49.1891 42.2919 44.6757 44.8682 35.1726C44.8771 35.1392 44.8839 35.1053 44.8873 35.0706L44.9373 34.5789C44.9394 34.5577 44.9407 34.5361 44.9407 34.5145V20.1274C44.9407 20.1151 44.9381 20.1045 44.9373 20.0935ZM43.6286 34.8885C41.4051 42.9773 32.6796 47.3549 31.0914 48.0922C29.5172 47.3527 20.9184 42.985 18.6818 34.9194V20.6983C23.285 20.1888 26.8553 19.1338 30.9017 15.7371C34.9116 19.0631 38.9453 20.1731 43.6697 20.6962V34.4814L43.6286 34.8885Z" fill="white"/>
<path d="M37.1055 27.9617H36.4956C36.1602 25.1483 33.7431 22.9578 30.8166 22.9578C27.89 22.9578 25.473 25.1483 25.138 27.9617H24.4002C24.0495 27.9617 23.7649 28.2459 23.7649 28.597V37.9145C23.7649 38.2656 24.0495 38.5498 24.4002 38.5498H37.1059C37.4566 38.5498 37.7412 38.2656 37.7412 37.9145V28.597C37.7407 28.2459 37.4561 27.9617 37.1055 27.9617ZM30.8161 24.2284C33.0405 24.2284 34.8837 25.8513 35.211 27.9617H26.4212C26.749 25.8513 28.5918 24.2284 30.8161 24.2284ZM36.4702 29.2323V37.2792H25.035V29.2323H36.4702Z" fill="white"/>
</svg>
