<svg width="64" height="64" viewBox="0 0 64 64" fill="none" xmlns="http://www.w3.org/2000/svg">
<rect width="64" height="64" rx="15" fill="#6654D4"/>
<g clip-path="url(#clip0_6_926)">
<path fill-rule="evenodd" clip-rule="evenodd" d="M21.7219 46.8148V19.7876C21.7219 19.6677 21.778 19.5536 21.8728 19.4821L31.9292 11.7462C32.0684 11.6379 32.2618 11.6379 32.4011 11.7462L42.4575 19.4821C42.5523 19.5536 42.6084 19.6677 42.6084 19.7876V46.8148C43.2833 45.4301 44.7048 44.4747 46.3487 44.4747C47.9752 44.4747 49.3869 45.4126 50.0677 46.778C51.5298 46.954 52.665 48.2014 52.665 49.7099C52.665 51.3402 51.3403 52.665 49.7099 52.665H42.5795C42.4983 52.665 42.419 52.6611 42.3416 52.6534C42.3029 52.6573 42.2643 52.6611 42.2256 52.6611L42.2217 52.665H22.1084L22.1064 52.6611C22.0658 52.6611 22.0271 52.6573 21.9885 52.6534C21.9111 52.6611 21.8318 52.665 21.7506 52.665H14.6202C12.9898 52.665 11.665 51.3402 11.665 49.7099C11.665 48.2014 12.8003 46.954 14.2624 46.778C14.9431 45.4126 16.355 44.4747 17.9814 44.4747C19.6253 44.4747 21.047 45.4301 21.7219 46.8148ZM21.5014 48.5921C21.4183 48.5283 21.3622 48.4296 21.3506 48.3194C21.1939 46.5981 19.7454 45.2483 17.9816 45.2483C16.5891 45.2483 15.3901 46.0934 14.8737 47.2983C14.8157 47.4356 14.6823 47.5245 14.5333 47.5323C13.371 47.5767 12.4388 48.536 12.4388 49.7099C12.4388 50.9128 13.4174 51.8914 14.6203 51.8914H20.5848C20.3295 51.5781 20.1632 51.1932 20.1226 50.7697L20.1168 50.702L20.1129 50.6188V50.5337L20.1168 50.4564L20.1206 50.3771L20.1303 50.2997L20.1419 50.2166L20.1554 50.1411L20.1728 50.0638L20.1922 49.9922L20.2019 49.9613L20.2135 49.9245L20.2251 49.8917L20.2347 49.8588C20.4475 49.2709 20.9135 48.8029 21.5014 48.5921ZM43.7462 51.8914H49.7106C50.9136 51.8914 51.8921 50.9128 51.8921 49.7099C51.8921 48.536 50.96 47.5768 49.7976 47.5323C49.6487 47.5246 49.5153 47.4356 49.4572 47.2983C48.9409 46.0935 47.7418 45.2483 46.3494 45.2483C44.5856 45.2483 43.137 46.5983 42.9804 48.3194C42.9688 48.4297 42.9127 48.5283 42.8295 48.5921C43.4194 48.8029 43.8874 49.2729 44.0982 49.8627L44.1118 49.9072L44.1466 50.0233L44.1562 50.0581L44.1736 50.1374L44.1891 50.2128L44.1988 50.2882L44.2085 50.3617L44.2143 50.441L44.2181 50.5183V50.6015L44.2143 50.6905L44.2123 50.7311L44.2085 50.7698C44.1678 51.1933 44.0015 51.5781 43.7462 51.8914ZM37.3931 50.0019H37.3641C37.3486 50.0019 37.3331 50.0019 37.3157 50.0039L37.2848 50.0058L37.2674 50.0078C37.2519 50.0078 37.2345 50.0116 37.219 50.0136L37.2055 50.0155C37.1978 50.0174 37.19 50.0174 37.1823 50.0194C37.161 50.0232 37.1397 50.029 37.1185 50.0348L37.1011 50.0387C37.0759 50.0464 37.0527 50.0542 37.0295 50.0638L36.9812 50.0832L36.956 50.0948C36.9463 50.1006 36.9367 50.1045 36.927 50.1083L36.9019 50.1238C36.8961 50.1257 36.8903 50.1296 36.8864 50.1315L36.8613 50.147L36.8458 50.1586L36.8187 50.176C36.8148 50.1779 36.809 50.1837 36.8032 50.1857L36.7723 50.2108C36.7568 50.2244 36.7413 50.2379 36.7259 50.2534L36.7123 50.263C36.7085 50.2688 36.7027 50.2727 36.6969 50.2785L36.6717 50.3036C36.6369 50.3423 36.606 50.3829 36.577 50.4255C36.575 50.4294 36.5731 50.4332 36.5712 50.4352C36.5499 50.4661 36.5325 50.499 36.517 50.5338C36.5112 50.5415 36.5093 50.5493 36.5035 50.557C36.5015 50.5647 36.4977 50.5725 36.4938 50.5783C36.4919 50.586 36.4899 50.5918 36.4861 50.5976C36.4841 50.6053 36.4803 50.6131 36.4783 50.6208C36.457 50.6788 36.4416 50.7388 36.4319 50.8007C36.43 50.8161 36.4261 50.8335 36.4242 50.849L36.4222 50.8858V50.8974C36.4222 50.9051 36.4203 50.9128 36.4203 50.9225V50.9477C36.4203 50.9612 36.4203 50.9767 36.4222 50.9902L36.4242 51.0211C36.4242 51.0443 36.428 51.0695 36.4319 51.0927V51.1024C36.4358 51.1178 36.4396 51.1352 36.4416 51.1507L36.4474 51.1778C36.4512 51.1875 36.4551 51.1991 36.457 51.2087C36.5712 51.6013 36.9309 51.8876 37.3602 51.8914H42.1197L42.199 51.8876C42.1971 51.8895 42.1971 51.8895 42.1952 51.8895C42.8218 51.8547 43.3323 51.3809 43.429 50.7736L43.4368 50.7117L43.4406 50.6672L43.4426 50.6208L43.4445 50.5725V50.5667C43.4445 50.5028 43.4406 50.441 43.431 50.3791L43.429 50.3617C43.4252 50.3307 43.4174 50.2998 43.4097 50.2688C43.4078 50.2553 43.4039 50.2418 43.402 50.2282C43.4 50.2205 43.3962 50.2127 43.3942 50.2069L43.3826 50.1625C43.3788 50.1509 43.373 50.1373 43.3691 50.1238L43.3575 50.0948L43.3517 50.0793C43.3439 50.058 43.3343 50.0368 43.3246 50.0155V50.0135C43.2472 49.8472 43.1389 49.7002 43.0036 49.5803L42.99 49.5668C42.9823 49.561 42.9746 49.5552 42.9688 49.5494C42.7579 49.3734 42.493 49.2632 42.2029 49.2438L42.1545 49.2419L42.1178 49.2361L42.1023 49.2342L42.0791 49.2264L42.0636 49.2226L42.0288 49.209C42.023 49.2052 42.0172 49.2032 42.0095 49.1994L41.994 49.1897L41.9689 49.1742C41.9592 49.1684 41.9515 49.1626 41.9437 49.1568C41.936 49.151 41.9302 49.1452 41.9244 49.1394C41.9225 49.1394 41.9225 49.1375 41.9205 49.1355L41.9012 49.1162C41.8973 49.1104 41.8934 49.1085 41.8915 49.1046C41.8838 49.0949 41.8741 49.0852 41.8683 49.0736L41.8509 49.0466C41.847 49.0408 41.8451 49.035 41.8412 49.0292L41.8316 49.0098L41.8122 48.9634L41.7871 48.9131L41.7813 48.8996C41.731 48.801 41.6749 48.7062 41.6111 48.6172L41.584 48.5786C41.5299 48.5051 41.468 48.4335 41.4042 48.3678C41.3906 48.3542 41.379 48.3426 41.3674 48.3291C41.3442 48.3078 41.3229 48.2885 41.2997 48.2672C41.2359 48.2072 41.1663 48.1531 41.0947 48.1028C41.0812 48.0951 41.0696 48.0873 41.058 48.0777C41.0502 48.0738 41.0425 48.068 41.0348 48.0641C41.027 48.0583 41.0193 48.0545 41.0116 48.0486C41 48.0409 40.9864 48.0312 40.9729 48.0235L40.9574 48.0158C40.9477 48.008 40.9342 48.0022 40.9226 47.9945L40.8858 47.9732C40.8298 47.9442 40.7737 47.9171 40.7157 47.892L40.6886 47.8804C40.6808 47.8785 40.675 47.8746 40.6673 47.8727C40.6557 47.8669 40.6422 47.863 40.6325 47.8572C40.6016 47.8475 40.5706 47.8359 40.5397 47.8262L40.4971 47.8108L40.4855 47.8088L40.4314 47.7934L40.3985 47.7837L40.3463 47.7721L40.2921 47.7605L40.267 47.7566L40.2341 47.7489C40.2244 47.7489 40.2148 47.747 40.2051 47.745L40.1625 47.7392L40.1219 47.7334C40.0871 47.7295 40.0523 47.7257 40.0136 47.7257C40.0098 47.7257 40.004 47.7237 39.9981 47.7237L39.9537 47.7218L39.9227 47.7199H39.8763C39.8512 47.7199 39.8241 47.7199 39.799 47.7218L39.7661 47.7237C39.7506 47.7237 39.7371 47.7257 39.7235 47.7257C39.71 47.7257 39.6964 47.7276 39.681 47.7295C39.6578 47.7315 39.6346 47.7334 39.6094 47.7373L39.5881 47.7392L39.5495 47.745C39.5166 47.7489 39.4856 47.7566 39.4547 47.7624L39.4102 47.7721C39.3464 47.7856 39.2826 47.803 39.2188 47.8243L39.1859 47.8359C39.1607 47.8437 39.1375 47.8514 39.1143 47.8611L39.093 47.8707C39.0756 47.8765 39.0563 47.8843 39.0389 47.892L39.0079 47.9055L38.9751 47.921C38.9519 47.9326 38.9306 47.9423 38.9074 47.9539L38.861 47.979C38.8532 47.9829 38.8416 47.9887 38.832 47.9945L38.7913 48.0177C38.7662 48.0351 38.7391 48.0506 38.714 48.0661L38.6811 48.0893L38.6386 48.1183C38.6057 48.1434 38.5728 48.1666 38.5399 48.1937L38.5187 48.213C38.4819 48.2401 38.451 48.2711 38.4181 48.302L38.3891 48.3291C38.3311 48.3852 38.2769 48.4451 38.2266 48.507C38.2266 48.507 38.2247 48.5109 38.2208 48.5128C38.2073 48.5302 38.1937 48.5495 38.1802 48.5689L38.1493 48.6076L38.1261 48.6424C38.1106 48.6617 38.097 48.6849 38.0835 48.7043L38.0661 48.7313C38.0603 48.7429 38.0545 48.7545 38.0487 48.7642L38.0274 48.799C38.0139 48.8222 38.0023 48.8474 37.9868 48.8706L37.9713 48.9054L37.9578 48.9305C37.9501 48.9479 37.9443 48.9634 37.9365 48.9789C37.9288 48.9944 37.9211 49.0118 37.9153 49.0292C37.8979 49.0678 37.8843 49.1065 37.8708 49.1471C37.8669 49.1529 37.865 49.1587 37.863 49.1645C37.8611 49.1742 37.8572 49.1819 37.8553 49.1897C37.8514 49.2013 37.8476 49.211 37.8456 49.2206C37.836 49.2496 37.8282 49.2806 37.8205 49.3096L37.8108 49.3425C37.8089 49.3579 37.8031 49.3734 37.8012 49.3889C37.8012 49.3927 37.7992 49.3966 37.7992 49.3985C37.7837 49.472 37.7702 49.5475 37.7625 49.6229C37.7625 49.6326 37.7625 49.6422 37.7605 49.6519C37.7605 49.6596 37.7586 49.6712 37.7567 49.6828L37.747 49.7215L37.7335 49.7621C37.7238 49.7873 37.7083 49.8124 37.6928 49.8356L37.6735 49.8608C37.6484 49.8917 37.6194 49.9188 37.5845 49.9401L37.571 49.9497L37.5536 49.9594C37.5497 49.9613 37.5459 49.9613 37.5439 49.9633C37.5323 49.9691 37.5227 49.9729 37.5111 49.9768L37.4917 49.9845C37.4878 49.9845 37.484 49.9865 37.4762 49.9884L37.4298 50H37.4144C37.4066 50 37.3989 50.0019 37.3931 50.0019ZM24.4606 47.7199H24.4239L24.3872 47.7218H24.3639L24.3175 47.7257L24.2614 47.7276L24.2344 47.7315L24.186 47.7373L24.1473 47.7411C24.1396 47.7431 24.1319 47.7431 24.1261 47.745L24.0932 47.7508C24.0758 47.7547 24.0564 47.7566 24.039 47.7605C24.0023 47.7682 23.9656 47.776 23.9307 47.7856L23.9095 47.7895C23.8863 47.7953 23.865 47.803 23.8437 47.8088L23.8166 47.8185C23.8089 47.8185 23.7992 47.8224 23.7915 47.8262C23.7567 47.8378 23.7219 47.8494 23.6871 47.863L23.6677 47.8707L23.6232 47.8881L23.6155 47.892C23.5594 47.9152 23.5053 47.9423 23.4511 47.9713C23.4414 47.9771 23.4298 47.9829 23.4202 47.9887C23.3854 48.008 23.3505 48.0274 23.3196 48.0486C23.3119 48.0525 23.3061 48.0564 23.3003 48.0602C23.279 48.0738 23.2577 48.0893 23.2345 48.1047L23.2094 48.1241C23.2016 48.1279 23.1939 48.1337 23.1881 48.1395C23.1649 48.155 23.1436 48.1724 23.1223 48.1898L23.1011 48.2072C23.0817 48.2227 23.0643 48.2382 23.0469 48.2536C23.0411 48.2575 23.0392 48.2594 23.0353 48.2633C23.0102 48.2846 22.987 48.3059 22.9638 48.3291C22.9521 48.3426 22.9405 48.3542 22.927 48.3677C22.8555 48.4412 22.7878 48.5225 22.7278 48.6056L22.7201 48.6172C22.6563 48.7062 22.6002 48.8009 22.5499 48.8996L22.5228 48.9557L22.4938 49.0214L22.4861 49.035C22.4841 49.0427 22.4783 49.0504 22.4745 49.0582L22.4551 49.0872C22.4532 49.0891 22.4493 49.093 22.4474 49.0949C22.4416 49.1026 22.4358 49.1104 22.428 49.1181C22.4222 49.1239 22.4164 49.1297 22.4126 49.1355C22.4029 49.1433 22.3952 49.151 22.3855 49.1568L22.3662 49.1723L22.3488 49.1839L22.3197 49.2013L22.2946 49.2109L22.2733 49.2206L22.2463 49.2283C22.2424 49.2303 22.2366 49.2322 22.2288 49.2341L22.2037 49.238L22.1747 49.2419L22.1283 49.2438C22.0935 49.2458 22.0606 49.2496 22.0277 49.2535L21.9639 49.2651C21.9523 49.267 21.9426 49.269 21.931 49.2709C21.9194 49.2728 21.9078 49.2767 21.8962 49.2806L21.8595 49.2883L21.8266 49.298C21.784 49.3115 21.7434 49.327 21.7047 49.3425L21.6661 49.3579C21.6583 49.3618 21.6525 49.3657 21.6467 49.3676C21.5926 49.3947 21.5404 49.4217 21.492 49.4546L21.4707 49.4682L21.4359 49.4933C21.4282 49.4972 21.4204 49.5049 21.4127 49.5107C21.4088 49.5126 21.405 49.5165 21.4011 49.5184L21.3702 49.5436C21.3586 49.5513 21.347 49.5629 21.3373 49.5726C21.3334 49.5745 21.3315 49.5765 21.3276 49.5803C21.2773 49.6248 21.2309 49.6751 21.1864 49.7273L21.1671 49.7525L21.1536 49.7718C21.1149 49.8221 21.0781 49.8762 21.0472 49.9323L21.0298 49.9671C21.0143 49.9981 20.9988 50.029 20.9872 50.06C20.9215 50.2166 20.8867 50.3868 20.8867 50.5666V50.6053L20.8905 50.6537L20.8944 50.7078L20.9021 50.7678V50.7736C20.9988 51.3808 21.5094 51.8547 22.136 51.8895C22.1341 51.8895 22.1341 51.8895 22.1322 51.8875L22.1882 51.8914H22.2114H26.9671C27.4719 51.8914 27.8838 51.493 27.9089 50.994C27.9109 50.9786 27.9109 50.9631 27.9109 50.9476V50.9089C27.9089 50.8741 27.907 50.8413 27.8993 50.8064C27.8935 50.7658 27.8857 50.7271 27.8761 50.6885L27.8664 50.6575C27.8625 50.6498 27.8606 50.644 27.8606 50.6382L27.849 50.6092L27.8393 50.5879L27.8277 50.557C27.8238 50.5512 27.8219 50.5434 27.8161 50.5357L27.7987 50.5009C27.791 50.4854 27.7832 50.4719 27.7755 50.4583C27.7736 50.4564 27.7716 50.4525 27.7697 50.4506L27.7503 50.4177L27.7271 50.3868C27.7097 50.3636 27.6923 50.3404 27.673 50.321C27.6691 50.3172 27.6653 50.3114 27.6614 50.3075C27.6575 50.3017 27.6517 50.2978 27.6498 50.2939C27.6382 50.2843 27.6285 50.2727 27.6188 50.263L27.6072 50.2533L27.5821 50.2321C27.5724 50.2224 27.5608 50.2127 27.5511 50.205C27.5434 50.2011 27.5376 50.1953 27.5318 50.1914L27.5047 50.1721L27.4815 50.1547C27.4796 50.1547 27.4757 50.1528 27.4738 50.1508C27.4332 50.1238 27.3906 50.1005 27.3461 50.0812L27.3075 50.0657C27.3017 50.0638 27.2959 50.0619 27.2881 50.0599C27.2804 50.0541 27.2707 50.0522 27.2611 50.0483C27.2553 50.0464 27.2475 50.0464 27.2417 50.0425C27.232 50.0406 27.2243 50.0387 27.2146 50.0348C27.1934 50.029 27.1702 50.0232 27.1469 50.0193L27.116 50.0155L27.0812 50.0097C27.0754 50.0077 27.0696 50.0077 27.0638 50.0077C27.0561 50.0077 27.0522 50.0058 27.0464 50.0058C27.0212 50.0039 26.9961 50.0019 26.971 50.0019H26.9516L26.9129 50L26.8936 49.9981L26.8549 49.9884L26.8336 49.9845L26.8104 49.9748C26.8085 49.9729 26.8027 49.971 26.7988 49.969L26.7737 49.9555C26.766 49.9536 26.7582 49.9478 26.7505 49.9439L26.7311 49.9304L26.7176 49.9207L26.7002 49.9052L26.677 49.8839L26.6577 49.8627C26.6519 49.8549 26.646 49.8472 26.6402 49.8395L26.6267 49.8201L26.6151 49.7989L26.6054 49.7795C26.5996 49.766 26.5919 49.7524 26.588 49.737L26.5842 49.7196L26.5803 49.708L26.5745 49.677C26.5726 49.6693 26.5706 49.6596 26.5706 49.6519L26.5687 49.6171C26.5668 49.6055 26.5648 49.5919 26.5629 49.5822C26.5532 49.4952 26.5377 49.4121 26.5165 49.3289L26.5145 49.327C26.5049 49.2825 26.4913 49.2399 26.4778 49.1974L26.472 49.1781C26.4643 49.151 26.4546 49.1258 26.4449 49.1026C26.4449 49.0988 26.443 49.0949 26.441 49.093C26.4314 49.0659 26.4217 49.0407 26.412 49.0175L26.3946 48.9789C26.3869 48.9595 26.3772 48.9402 26.3676 48.9189L26.3482 48.8802C26.3444 48.8764 26.3424 48.8706 26.3385 48.8628C26.3308 48.8473 26.3231 48.8319 26.3134 48.8164L26.2979 48.7913C26.2883 48.77 26.2767 48.7526 26.267 48.7332L26.2651 48.7313C26.2515 48.7081 26.236 48.6868 26.2206 48.6656L26.2032 48.6385C26.1877 48.6153 26.1742 48.5959 26.1587 48.5747C26.1548 48.5708 26.1529 48.5689 26.151 48.5669C26.1374 48.5495 26.1258 48.5321 26.1123 48.5166L26.0968 48.4992C26.0891 48.4896 26.0813 48.478 26.0736 48.4683L26.0543 48.447C25.9982 48.3832 25.9421 48.3252 25.8802 48.2691C25.8686 48.2594 25.857 48.2498 25.8473 48.2401C25.8415 48.2362 25.8376 48.2323 25.8338 48.2285C25.8183 48.2169 25.8067 48.2053 25.7932 48.1956L25.768 48.1743C25.7642 48.1724 25.7603 48.1685 25.7564 48.1666C25.7409 48.1531 25.7255 48.1415 25.7081 48.1298L25.6849 48.1124C25.6771 48.1066 25.6694 48.1028 25.6617 48.097C25.6501 48.0892 25.6404 48.0815 25.6307 48.0738L25.5978 48.0544L25.5476 48.0235C25.5321 48.0119 25.5127 48.0022 25.4934 47.9925L25.4663 47.9751C25.4547 47.9693 25.4412 47.9635 25.4315 47.9577L25.4083 47.9461L25.3561 47.921L25.3232 47.9055L25.2903 47.892L25.2633 47.8804C25.2555 47.8765 25.2478 47.8726 25.2401 47.8707L25.2149 47.861C25.1917 47.8514 25.1704 47.8436 25.1472 47.8359L25.1085 47.8243L25.0525 47.8049C25.0331 47.8011 25.0138 47.7953 24.9925 47.7875L24.9364 47.774L24.8958 47.7663L24.8765 47.7624C24.8591 47.7585 24.8397 47.7547 24.8204 47.7508L24.7952 47.7489L24.772 47.7431C24.7604 47.7411 24.7508 47.7411 24.743 47.7392L24.7218 47.7373C24.6966 47.7334 24.6715 47.7315 24.6463 47.7276C24.6347 47.7276 24.6193 47.7257 24.6057 47.7257C24.5574 47.7218 24.509 47.7199 24.4606 47.7199ZM24.422 46.9463H24.4548C25.8531 46.9463 27.0232 47.9403 27.2939 49.2593C28.085 49.4121 28.6845 50.1103 28.6845 50.9477V50.996L28.6806 51.0444V51.0773L28.6748 51.1314L28.6709 51.1643L28.669 51.1798C28.6342 51.4389 28.5414 51.6806 28.4021 51.8915C30.9337 51.8915 35.9291 51.8915 35.9291 51.8895L35.8962 51.8392L35.8691 51.7928L35.8401 51.7387L35.8169 51.6923L35.7782 51.6072L35.7589 51.5569L35.7434 51.5143L35.726 51.4621L35.7125 51.4176L35.6989 51.3712L35.6873 51.319L35.6777 51.2726L35.6699 51.2262L35.6603 51.172L35.6564 51.1237L35.6506 51.0676L35.6467 50.9709V50.9477C35.6467 50.1103 36.2462 49.4121 37.0373 49.2593C37.308 47.9403 38.4781 46.9463 39.8763 46.9463H39.9479L40.091 46.954L40.1664 46.9598L40.209 46.9656L40.2612 46.9714L40.3037 46.9772L40.354 46.985C40.9187 47.0797 41.4293 47.3369 41.8355 47.7082V19.9771L32.1657 12.5393L22.4959 19.9771V47.7082C22.8847 47.3524 23.372 47.099 23.9097 46.9985L23.9619 46.9888L24.0122 46.9811L24.0799 46.9695L24.1573 46.9617L24.2017 46.9579L24.2791 46.9521L24.3487 46.9482L24.422 46.9463ZM36.8073 39.5432C36.0898 39.5432 35.4014 39.8294 34.8927 40.338C34.3841 40.8447 34.0997 41.5332 34.0997 42.2507V46.0896C34.0997 46.3024 34.2738 46.4764 34.4865 46.4764H39.1281C39.3408 46.4764 39.5149 46.3024 39.5149 46.0896V42.2507C39.5149 41.5332 39.2306 40.8448 38.7219 40.338C38.2133 39.8294 37.5248 39.5432 36.8073 39.5432ZM27.5243 39.5432H27.5204C27.4798 39.5432 27.4353 39.5509 27.3966 39.5644C27.3405 39.5857 27.2883 39.6186 27.2477 39.6611C27.2071 39.7017 27.1781 39.7501 27.1587 39.8042C27.1452 39.8448 27.1375 39.8874 27.1375 39.9299C27.1375 39.7172 27.3115 39.5432 27.5243 39.5432C26.8068 39.5432 26.1183 39.8294 25.6096 40.338C25.101 40.8447 24.8167 41.5332 24.8167 42.2507V46.0896C24.8167 46.3024 24.9907 46.4764 25.2035 46.4764H29.845C30.0577 46.4764 30.2318 46.3024 30.2318 46.0896V42.2507C30.2318 41.5332 29.9475 40.8448 29.4388 40.338C28.9302 39.8294 28.2417 39.5432 27.5243 39.5432ZM27.1375 45.7026H25.5903V43.3974H27.1375V45.7026ZM36.4205 45.7026H34.8734V43.3974H36.4205V45.7026ZM29.4585 43.3974V45.7026H28.8531H27.9113V43.3974H29.4585ZM38.7416 43.3974V45.7026H38.1362H37.1944V43.3974H38.7416ZM37.1944 40.3553C37.5618 40.4307 37.9042 40.6144 38.1749 40.8832C38.5366 41.2468 38.7416 41.7381 38.7416 42.2505V42.6238H37.1944V40.3553ZM36.4208 40.3553V42.6238H34.8736V42.2505C34.8736 41.738 35.0786 41.2468 35.4402 40.8832C35.711 40.6144 36.0533 40.4307 36.4208 40.3553ZM27.911 40.3553C28.2785 40.4307 28.6208 40.6144 28.8916 40.8832C29.2532 41.2468 29.4582 41.7381 29.4582 42.2505V42.6238H27.911V40.3553ZM27.1375 40.3553V42.6238H25.5903V42.2505C25.5903 41.738 25.7953 41.2468 26.1569 40.8832C26.4277 40.6144 26.77 40.4307 27.1375 40.3553ZM36.8072 30.2598C36.0897 30.2598 35.4012 30.546 34.8926 31.0547C34.384 31.5614 34.0996 32.2499 34.0996 32.9674V36.8063C34.0996 37.019 34.2737 37.1931 34.4864 37.1931H39.128C39.3407 37.1931 39.5148 37.019 39.5148 36.8063V32.9674C39.5148 32.2499 39.2305 31.5614 38.7218 31.0547C38.2132 30.5461 37.5247 30.2598 36.8072 30.2598ZM27.5241 30.2598H27.5203C27.4796 30.2598 27.4352 30.2675 27.3965 30.2811C27.3404 30.3023 27.2882 30.3352 27.2476 30.3778C27.207 30.4184 27.1779 30.4667 27.1586 30.5209C27.1451 30.5615 27.1373 30.604 27.1373 30.6466C27.1373 30.4339 27.3114 30.2598 27.5241 30.2598C26.8066 30.2598 26.1181 30.546 25.6095 31.0547C25.1009 31.5614 24.8165 32.2499 24.8165 32.9674V36.8063C24.8165 37.019 24.9906 37.1931 25.2033 37.1931H29.8449C30.0576 37.1931 30.2317 37.019 30.2317 36.8063V32.9674C30.2317 32.2499 29.9474 31.5614 29.4387 31.0547C28.9301 30.5461 28.2416 30.2598 27.5241 30.2598ZM36.4205 36.4193H34.8734V34.114H36.4205V36.4193ZM27.1375 36.4193H25.5903V34.114H27.1375V36.4193ZM38.7416 34.114V36.4193H38.1362H37.1944V34.114H38.7416ZM29.4585 34.114V36.4193H28.8531H27.9113V34.114H29.4585ZM36.4205 31.0719V33.3404H34.8734V32.9672C34.8734 32.4546 35.0784 31.9635 35.44 31.5999C35.7108 31.331 36.0531 31.1473 36.4205 31.0719ZM27.9108 31.0719C28.2783 31.1473 28.6206 31.3311 28.8913 31.5999C29.253 31.9635 29.458 32.4547 29.458 32.9672V33.3404H27.9108V31.0719ZM27.1372 31.0719V33.3404H25.59V32.9672C25.59 32.4546 25.795 31.9635 26.1567 31.5999C26.4274 31.331 26.7697 31.1473 27.1372 31.0719ZM37.1936 31.0719C37.5611 31.1473 37.9034 31.3311 38.1742 31.5999C38.5358 31.9635 38.7408 32.4547 38.7408 32.9672V33.3404H37.1936V31.0719ZM27.5239 20.468H27.52C27.4794 20.468 27.4349 20.4757 27.3962 20.4893C27.3402 20.5105 27.2879 20.5415 27.2473 20.584C27.2067 20.6266 27.1777 20.673 27.1584 20.7271C27.1448 20.7678 27.1371 20.8122 27.1371 20.8548C27.1371 20.642 27.3111 20.468 27.5239 20.468C26.8064 20.468 26.1179 20.7523 25.6092 21.2609C25.1006 21.7695 24.8163 22.4581 24.8163 23.1756V27.0145C24.8163 27.2272 24.9903 27.4013 25.2031 27.4013H29.8446C30.0574 27.4013 30.2314 27.2272 30.2314 27.0145V23.1756C30.2314 22.4581 29.9471 21.7696 29.4385 21.2609C28.9299 20.7523 28.2414 20.468 27.5239 20.468ZM36.807 20.468C36.0895 20.468 35.401 20.7523 34.8923 21.2609C34.3837 21.7695 34.0994 22.4581 34.0994 23.1756V27.0145C34.0994 27.2272 34.2734 27.4013 34.4862 27.4013H39.1277C39.3404 27.4013 39.5145 27.2272 39.5145 27.0145V23.1756C39.5145 22.4581 39.2302 21.7696 38.7216 21.2609C38.2129 20.7523 37.5245 20.468 36.807 20.468ZM27.1372 26.6275H25.59V24.3202H27.1372V26.6275ZM36.4203 26.6275H34.8731V24.3202H36.4203V26.6275ZM38.7411 24.3202V26.6275H38.1357H37.1939V24.3202H38.7411ZM29.458 24.3202V26.6275H28.8526H27.9108V24.3202H29.458ZM27.9108 21.28C28.2783 21.3555 28.6206 21.5373 28.8913 21.808C29.253 22.1697 29.458 22.6609 29.458 23.1753V23.5466H27.9108V21.28ZM27.1372 21.28V23.5466H25.59V23.1753C25.59 22.6609 25.795 22.1697 26.1567 21.808C26.4274 21.5373 26.7697 21.3555 27.1372 21.28ZM36.4203 21.28V23.5466H34.8731V23.1753C34.8731 22.6609 35.0781 22.1697 35.4398 21.808C35.7105 21.5373 36.0528 21.3555 36.4203 21.28ZM37.1939 21.28C37.5613 21.3555 37.9037 21.5373 38.1744 21.808C38.5361 22.1697 38.7411 22.6609 38.7411 23.1753V23.5466H37.1939V21.28Z" fill="white"/>
</g>
<defs>
<clipPath id="clip0_6_926">
<rect width="42.67" height="42.67" fill="white" transform="translate(10.665 10.665)"/>
</clipPath>
</defs>
</svg>
