<svg width="64" height="64" viewBox="0 0 64 64" fill="none" xmlns="http://www.w3.org/2000/svg">
<rect width="64" height="64" rx="15" fill="#6654D4"/>
<path d="M15.8981 43.533C15.558 43.533 15.2827 43.8083 15.2827 44.1483C15.2827 44.4884 15.558 44.7637 15.8981 44.7637H47.5586C47.8987 44.7637 48.174 44.4884 48.174 44.1483C48.174 43.8083 47.8987 43.533 47.5586 43.533H44.1242V25.3689H47.5586C47.8987 25.3689 48.174 25.0936 48.174 24.7535C48.174 24.4134 47.8987 24.1381 47.5586 24.1381H19.4239C19.3689 24.122 19.3121 24.1106 19.252 24.1106C19.1918 24.1106 19.1347 24.122 19.08 24.1381H15.8981C15.558 24.1381 15.2827 24.4134 15.2827 24.7535C15.2827 25.0936 15.558 25.3689 15.8981 25.3689H18.6391V43.533H15.8981ZM28.2015 43.533V25.3689H35.0016V43.533H28.2015ZM42.8935 43.533H36.2323V25.3689H42.8935V43.533ZM19.8648 25.3689H26.9707V43.533H19.8648V25.3689Z" fill="white"/>
<path d="M51.2902 48.545H12.1664C11.8263 48.545 11.551 48.8202 11.551 49.1603C11.551 49.5004 11.8263 49.7757 12.1664 49.7757H51.2902C51.6303 49.7757 51.9056 49.5004 51.9056 49.1603C51.9056 48.8202 51.6303 48.545 51.2902 48.545Z" fill="white"/>
<path d="M51.8214 24.133L32.2593 12.9554C32.0708 12.8478 31.8387 12.8474 31.6502 12.9546L11.9598 24.1322C11.6642 24.2999 11.5608 24.6756 11.7285 24.9712C11.842 25.1711 12.05 25.2829 12.2643 25.2829C12.3672 25.2829 12.4714 25.2571 12.5675 25.2029L31.953 14.198L51.2111 25.2016C51.505 25.3693 51.8811 25.2681 52.0505 24.9725C52.2191 24.6777 52.1166 24.302 51.8214 24.133Z" fill="white"/>
</svg>
