<svg width="64" height="64" viewBox="0 0 64 64" fill="none" xmlns="http://www.w3.org/2000/svg">
<rect width="64" height="64" rx="15" fill="#6654D4"/>
<path d="M40.6088 27.0116C40.611 27.0116 40.6135 27.0116 40.6157 27.0116C41.5124 27.0116 42.3553 26.6627 42.9904 26.0294C43.6271 25.3939 43.9786 24.5493 43.9794 23.6496C43.9811 21.7922 42.4722 20.2794 40.6161 20.2768C40.6153 20.2768 40.614 20.2768 40.6131 20.2768C38.7574 20.2768 37.2468 21.784 37.2446 23.638C37.2429 24.5385 37.5931 25.3858 38.2294 26.0234C38.8649 26.6606 39.7104 27.0116 40.6088 27.0116ZM40.6127 21.5524C40.6135 21.5524 40.6148 21.5524 40.6148 21.5524C41.768 21.5537 42.7046 22.4942 42.7038 23.6483C42.7034 24.2068 42.4851 24.7314 42.0898 25.1258C41.6954 25.5194 41.1717 25.7355 40.614 25.7355C40.6127 25.7355 40.611 25.7355 40.6097 25.7355C40.0511 25.7355 39.5265 25.5177 39.1317 25.1224C38.7364 24.7263 38.519 24.1999 38.5198 23.6397C38.5216 22.4886 39.4599 21.5524 40.6127 21.5524Z" fill="white"/>
<path d="M51.6152 46.885L45.1584 31.7806L47.3582 28.2617C47.3818 28.2239 47.4011 28.1839 47.4153 28.1431C48.1676 26.895 48.5651 25.481 48.5651 24.0451C48.5685 21.9188 47.7453 19.9192 46.2467 18.415C44.7476 16.9099 42.7506 16.0789 40.6234 16.0759C40.62 16.0759 40.6169 16.0759 40.6139 16.0759C36.2315 16.0759 32.6611 19.6386 32.6542 24.0228C32.6542 25.4806 33.0529 26.9027 33.8087 28.1431C33.8207 28.1736 33.8353 28.2037 33.8529 28.2325L35.0469 30.2377H19.7724C19.5168 30.2377 19.286 30.3898 19.1859 30.6248L12.2359 46.885C12.1521 47.0817 12.1723 47.3082 12.29 47.4869C12.4082 47.6656 12.608 47.7735 12.8224 47.7735H51.03C51.2444 47.7735 51.4442 47.6661 51.5623 47.4869C51.6792 47.3082 51.699 47.0817 51.6152 46.885ZM34.9507 27.5665C34.2822 26.5062 33.929 25.2808 33.929 24.0241C33.9354 20.3432 36.9327 17.352 40.6131 17.352C40.6161 17.352 40.6187 17.352 40.6217 17.352C42.4073 17.3546 44.0847 18.0519 45.3431 19.3155C46.6011 20.5787 47.2924 22.2578 47.2894 24.0434V24.0442C47.2894 25.2864 46.9341 26.5109 46.2613 27.585C46.2381 27.6211 46.2196 27.6593 46.2054 27.6989L40.476 36.8633L36.7088 30.5371C36.7041 30.5294 36.7002 30.5217 36.6951 30.5144L35.0074 27.6804C34.9928 27.6409 34.9739 27.6026 34.9507 27.5665ZM20.1917 31.5133H21.6452C21.7363 33.3329 23.2964 34.0182 24.4466 34.52C25.0502 34.7834 25.6745 35.0554 25.8704 35.3896C26.1798 35.9172 25.98 36.2846 25.3742 37.1259C24.8204 37.8945 24.1308 38.8509 24.6025 40.1051C25.3338 42.0497 29.1268 42.5721 33.2849 42.9743C34.0398 43.0469 34.6912 43.11 35.1002 43.1796C38.3114 43.7249 39.3899 45.5453 39.7413 46.4991H13.7873L20.1917 31.5133ZM41.0805 46.4978C40.7901 45.4014 39.6386 42.655 35.3133 41.9212C34.8596 41.8443 34.1872 41.779 33.4078 41.7038C31.1036 41.4808 26.3087 41.0172 25.7965 39.6552C25.5766 39.0709 25.8859 38.5965 26.4088 37.8713C26.9665 37.0979 27.7295 36.0384 26.9708 34.7439C26.5652 34.0517 25.7471 33.6951 24.9566 33.3501C23.7566 32.8272 23.0107 32.425 22.9286 31.5129H35.8053L39.9149 38.4139C40.0288 38.6051 40.2337 38.7233 40.4563 38.7254C40.4584 38.7254 40.461 38.7254 40.4631 38.7254C40.6831 38.7254 40.8872 38.6124 41.0041 38.426L44.3347 33.0983L50.0628 46.4978H41.0805Z" fill="white"/>
</svg>
