<svg width="64" height="64" viewBox="0 0 64 64" fill="none" xmlns="http://www.w3.org/2000/svg">
<rect width="64" height="64" rx="15" fill="#6654D4"/>
<path d="M48.0146 25.16L44.9825 22.3391L47.0844 20.0801C47.5756 19.5515 47.8674 18.8363 47.8849 18.1173C47.9033 17.351 47.6246 16.661 47.0998 16.1741C46.048 15.1978 44.2661 15.3318 43.2083 16.4681L28.7436 32.0034C25.3658 30.4152 21.3216 31.1769 18.743 33.9436C15.495 37.4336 15.6908 42.9158 19.1795 46.1652C20.7942 47.6676 22.8739 48.4847 25.0667 48.4847C25.1717 48.4847 25.2767 48.483 25.3821 48.4792C27.6909 48.3968 29.8283 47.4201 31.4002 45.7295C33.9762 42.9653 34.4481 38.8754 32.6219 35.6146L38.8214 28.9555L41.8527 31.7786C41.9768 31.8942 42.1415 31.9518 42.3118 31.9497C42.4816 31.9437 42.6421 31.8699 42.7577 31.7457L44.511 29.8588C44.7512 29.6003 44.7367 29.1953 44.4786 28.9547L41.4473 26.132L42.3545 25.1596L45.3849 27.9843C45.5086 28.1 45.6704 28.1593 45.8436 28.1559C46.0134 28.1499 46.1734 28.0765 46.2895 27.9523L48.0462 26.0655C48.1619 25.9413 48.2237 25.7762 48.2173 25.6063C48.2122 25.4361 48.1392 25.2756 48.0146 25.16ZM45.7898 26.6108L42.7598 23.7865C42.5017 23.5458 42.0963 23.5595 41.8557 23.818L40.075 25.7271C39.9594 25.8513 39.8975 26.0164 39.9035 26.1862C39.9095 26.3561 39.9829 26.5165 40.107 26.6321L43.1387 29.4556L42.2572 30.4046L39.2259 27.582C39.1017 27.4663 38.9413 27.4019 38.7668 27.4109C38.5974 27.4168 38.4369 27.4902 38.3213 27.6144L31.463 34.9805L31.4566 34.9848C31.1698 35.1798 31.09 35.5676 31.2773 35.8599C33.0942 38.6937 32.7597 42.3931 30.4636 44.8569C29.1242 46.2974 27.3035 47.1291 25.3368 47.1995C23.3774 47.2644 21.4935 46.5688 20.0521 45.2281C17.0797 42.4601 16.9129 37.7886 19.6796 34.8158C21.1151 33.2763 23.0834 32.4647 25.0778 32.4647C26.2777 32.4647 27.4874 32.7583 28.596 33.3633C28.7457 33.4452 28.9224 33.4636 29.0854 33.4149C29.248 33.3663 29.3849 33.2549 29.4656 33.1056L44.1441 17.3399C44.7201 16.722 45.693 16.6153 46.2281 17.1116C46.4802 17.3454 46.6134 17.6915 46.6044 18.0862C46.5946 18.4962 46.4273 18.905 46.1461 19.2075L43.6085 21.935C43.4929 22.0596 43.4315 22.2247 43.4379 22.3941C43.4443 22.5635 43.5177 22.724 43.6418 22.8396L46.674 25.6605L45.7898 26.6108Z" fill="white"/>
<path d="M25.0679 36.797C24.2687 36.8102 23.5228 37.1336 22.9673 37.708C22.4113 38.2823 22.1126 39.038 22.1254 39.8368C22.1523 41.4693 23.4891 42.7793 25.1161 42.7793C25.1328 42.7793 25.1494 42.7789 25.1656 42.7789C25.9648 42.7656 26.7107 42.4422 27.2663 41.8683C27.8218 41.2939 28.1205 40.5378 28.1077 39.739C28.0945 38.9403 27.7711 38.194 27.1967 37.6384C26.6224 37.0828 25.8667 36.8012 25.0679 36.797ZM26.3467 40.9778C26.0288 41.3063 25.6021 41.4911 25.1452 41.4988C25.1358 41.4992 25.1264 41.4992 25.1166 41.4992C24.1859 41.4992 23.4209 40.7499 23.4055 39.8163C23.3978 39.3593 23.5689 38.927 23.8868 38.5985C24.2047 38.2699 24.6318 38.0852 25.0888 38.0775C25.0982 38.077 25.108 38.077 25.1174 38.077C25.5637 38.077 25.9853 38.2473 26.3071 38.5588C26.6356 38.8767 26.8208 39.303 26.8281 39.76C26.8357 40.217 26.6646 40.6496 26.3467 40.9778Z" fill="white"/>
</svg>
