<svg width="64" height="64" viewBox="0 0 64 64" fill="none" xmlns="http://www.w3.org/2000/svg">
<rect width="64" height="64" rx="15" fill="#6654D4"/>
<path d="M45.0428 17.6522H17.6274C17.2736 17.6522 16.9873 17.9385 16.9873 18.2923V45.7077C16.9873 46.0611 17.2736 46.3478 17.6274 46.3478H28.1097C28.4634 46.3478 28.7497 46.0611 28.7497 45.7077C28.7497 45.3544 28.4634 45.0677 28.1097 45.0677H18.2674V37.1823H23.529C23.8828 37.1823 24.1691 36.8955 24.1691 36.5422C24.1691 36.1889 23.8828 35.9022 23.529 35.9022H18.2674V18.9323H31.3957V27.1058C31.3957 27.4595 31.6824 27.7458 32.0357 27.7458C32.389 27.7458 32.6758 27.4595 32.6758 27.1058V18.9323H44.4028V31.6817H27.5643C27.2106 31.6817 26.9243 31.968 26.9243 32.3217C26.9243 32.675 27.2106 32.9618 27.5643 32.9618H44.4028V45.0677H36.953L33.0538 39.3913C32.8537 39.1003 32.456 39.0265 32.1637 39.2262C31.8723 39.4263 31.7989 39.8244 31.9986 40.1163L36.0885 46.07C36.2076 46.2437 36.4051 46.3474 36.6159 46.3474H45.0424C45.3957 46.3474 45.6825 46.0606 45.6825 45.7073V18.2918C45.6829 17.9385 45.3961 17.6522 45.0428 17.6522Z" fill="white"/>
</svg>
