<svg width="64" height="64" viewBox="0 0 64 64" fill="none" xmlns="http://www.w3.org/2000/svg">
<rect width="64" height="64" rx="15" fill="#6654D4"/>
<path d="M48.4783 18.6353C48.4774 18.2837 48.1921 17.9988 47.8405 17.9988H47.8392L14.6277 18.0686C14.4585 18.069 14.2965 18.1366 14.177 18.2561C14.0575 18.376 13.9908 18.5384 13.9912 18.7076L14.0431 42.6213C14.0439 42.9733 14.3292 43.2578 14.6809 43.2578H14.6822L23.8375 43.2386L23.3503 43.9258C23.1985 44.1405 23.1934 44.4262 23.3379 44.6456C23.4825 44.865 23.7474 44.9739 24.0038 44.9186L26.8569 44.3089L27.3565 46.9808C27.4062 47.2466 27.618 47.4519 27.885 47.494C27.9182 47.4991 27.9509 47.5017 27.9837 47.5017C28.215 47.5017 28.4322 47.3754 28.5445 47.1671L30.6752 43.2242L32.2467 43.2212L34.3293 47.2083C34.4403 47.4209 34.6593 47.551 34.894 47.551C34.9238 47.551 34.9539 47.5489 34.9841 47.5446C35.2516 47.5064 35.4663 47.3044 35.5199 47.0395L36.0582 44.3748L38.8994 45.024C39.1553 45.0819 39.4215 44.9786 39.5691 44.7609C39.7166 44.5432 39.7158 44.2574 39.5669 44.0414L38.9929 43.2067L47.8932 43.1885C48.0624 43.188 48.2244 43.1209 48.3439 43.001C48.4634 42.881 48.5301 42.7186 48.5301 42.5494L48.4783 18.6353ZM28.2787 44.9756L27.99 43.4321C27.9581 43.2633 27.8599 43.1136 27.7166 43.0184C27.5738 42.9227 27.3986 42.8887 27.2298 42.9253L25.3368 43.3296L25.5018 43.097C25.597 43.0218 25.6697 42.921 25.7097 42.8041L27.9254 39.6806C28.6568 40.315 29.5288 40.7393 30.4698 40.92L29.8095 42.1425C29.7283 42.2258 29.6704 42.3308 29.6441 42.4486L28.2787 44.9756ZM35.7393 35.5595C35.7316 36.6855 35.2852 37.7417 34.482 38.533C33.6864 39.3166 32.6362 39.7465 31.5209 39.7465C31.5103 39.7465 31.4996 39.7465 31.4886 39.7465C30.3614 39.7388 29.3048 39.2928 28.513 38.49C27.7217 37.6877 27.2906 36.6251 27.2982 35.4992C27.3152 33.1818 29.2065 31.3071 31.5205 31.3071C31.5298 31.3071 31.54 31.3071 31.5494 31.3071C33.8765 31.325 35.7563 33.232 35.7393 35.5595ZM31.3648 41.9477L31.4745 41.7445L31.5804 41.9473L31.3648 41.9477ZM35.7036 42.9861C35.536 42.9474 35.36 42.9784 35.2159 43.072C35.0713 43.1651 34.9705 43.3126 34.9365 43.4814L34.6257 45.0219L32.4908 40.9336C33.4347 40.7665 34.3132 40.3558 35.0543 39.7307L37.5889 43.4164L35.7036 42.9861ZM38.1166 41.9337L35.9459 38.777C36.6288 37.8514 37.0072 36.7407 37.0149 35.5685C37.037 32.5381 34.5896 30.0549 31.5587 30.032C31.546 30.032 31.5332 30.032 31.5209 30.032C28.5079 30.032 26.0448 32.473 26.0226 35.4907C26.0146 36.6629 26.3773 37.7787 27.0469 38.7141L24.7432 41.9613L15.317 41.9813L15.2681 19.3433L47.2039 19.2761L47.252 41.915L38.1166 41.9337Z" fill="white"/>
<path d="M37.4077 23.0846L25.2228 22.9975C25.2211 22.9975 25.2198 22.9975 25.2181 22.9975C24.8678 22.9975 24.5829 23.2802 24.5803 23.6306C24.5778 23.9831 24.8614 24.2705 25.2135 24.273L37.3984 24.3602C37.4001 24.3602 37.4014 24.3602 37.4031 24.3602C37.753 24.3602 38.0383 24.0775 38.0409 23.7271C38.0434 23.3746 37.7598 23.0872 37.4077 23.0846Z" fill="white"/>
<path d="M37.3865 25.9628L25.2033 25.8761C25.2016 25.8761 25.2003 25.8761 25.1986 25.8761C24.8482 25.8761 24.5634 26.1588 24.5608 26.5092C24.5583 26.8617 24.8419 27.1491 25.1939 27.1517L37.3772 27.2384C37.3789 27.2384 37.3806 27.2384 37.3818 27.2384C37.7318 27.2384 38.0171 26.9556 38.0196 26.6053C38.0222 26.2528 37.7386 25.9653 37.3865 25.9628Z" fill="white"/>
</svg>
