<svg width="64" height="64" viewBox="0 0 64 64" fill="none" xmlns="http://www.w3.org/2000/svg">
<rect width="64" height="64" rx="15" fill="#6654D4"/>
<path d="M47.1462 17.4926H30.507C30.1533 17.4926 29.867 17.7789 29.867 18.1327V26.5579L16.4221 31.3983C16.1682 31.4897 15.9988 31.7307 15.9988 32.0004V45.8656C15.9988 46.2189 16.2851 46.5057 16.6388 46.5057L30.507 46.5074H47.1462C47.4995 46.5074 47.7862 46.2206 47.7862 45.8673V18.1327C47.7862 17.7789 47.4995 17.4926 47.1462 17.4926ZM17.2789 32.4506L29.867 27.9182V45.2273L17.2789 45.2256V32.4506ZM46.5061 45.2273H31.1471V18.7727H46.5061V45.2273Z" fill="white"/>
<path d="M36.0512 29.8656H41.5979C41.9512 29.8656 42.2379 29.5793 42.2379 29.2255V23.6793C42.2379 23.3256 41.9512 23.0392 41.5979 23.0392H36.0512C35.6979 23.0392 35.4111 23.3256 35.4111 23.6793V29.2255C35.4111 29.5793 35.6979 29.8656 36.0512 29.8656ZM36.6912 24.3193H40.9578V28.5855H36.6912V24.3193Z" fill="white"/>
<path d="M41.5995 34.1331H36.0541C35.7008 34.1331 35.4141 34.4198 35.4141 34.7731V40.3194C35.4141 40.6727 35.7008 40.9594 36.0541 40.9594H41.5995C41.9528 40.9594 42.2396 40.6727 42.2396 40.3194V34.7731C42.2396 34.4198 41.9528 34.1331 41.5995 34.1331ZM40.9595 39.6793H36.6942V35.4132H40.9595V39.6793Z" fill="white"/>
</svg>
