<svg width="64" height="64" viewBox="0 0 64 64" fill="none" xmlns="http://www.w3.org/2000/svg">
<rect width="64" height="64" rx="15" fill="#6654D4"/>
<path d="M47.9389 22.6058H41.0769V22.3589C41.0769 19.0902 38.4176 16.4313 35.1489 16.4313H28.5334C25.2647 16.4313 22.6058 19.0902 22.6058 22.3589V22.6058H15.7434C15.3928 22.6058 15.1082 22.8904 15.1082 23.2411V46.6158C15.1082 46.9665 15.3928 47.2511 15.7434 47.2511H47.9393C48.29 47.2511 48.5746 46.9665 48.5746 46.6158V23.2411C48.5741 22.8904 48.2895 22.6058 47.9389 22.6058ZM23.8764 22.3589C23.8764 19.7911 25.9656 17.7018 28.5334 17.7018H35.1489C37.7167 17.7018 39.8064 19.7911 39.8064 22.3589V22.6058H23.8764V22.3589ZM47.3036 23.8764V31.4265H34.708C34.3573 31.4265 34.0727 31.7112 34.0727 32.0618V34.4878C34.0727 35.8397 32.9728 36.9396 31.6209 36.9396C30.269 36.9396 29.1687 35.8397 29.1687 34.4878V32.0618C29.1687 31.7112 28.8841 31.4265 28.5334 31.4265H16.3787V23.8764H47.3036ZM16.3787 45.9809V32.6975H27.8981V34.4882C27.8981 36.541 29.5681 38.2106 31.6209 38.2106C33.6737 38.2106 35.3433 36.541 35.3433 34.4882V32.6975H47.3036V45.9809H16.3787Z" fill="white"/>
</svg>
