<svg width="64" height="64" viewBox="0 0 64 64" fill="none" xmlns="http://www.w3.org/2000/svg">
<rect width="64" height="64" rx="15" fill="#6654D4"/>
<path d="M46.5886 17.4926H29.9494C29.5957 17.4926 29.3093 17.7789 29.3093 18.1327V26.5579L15.8644 31.3983C15.6106 31.4897 15.4412 31.7307 15.4412 32.0004V45.8656C15.4412 46.2189 15.7275 46.5057 16.0812 46.5057L29.9494 46.5074H46.5886C46.9419 46.5074 47.2286 46.2206 47.2286 45.8673V18.1327C47.2286 17.7789 46.9419 17.4926 46.5886 17.4926ZM16.7213 32.4506L29.3093 27.9182V45.2273L16.7213 45.2256V32.4506ZM45.9485 45.2273H30.5894V18.7727H45.9485V45.2273Z" fill="white"/>
<path d="M35.4936 29.8657H41.0402C41.3935 29.8657 41.6803 29.5793 41.6803 29.2256V23.6794C41.6803 23.3256 41.3935 23.0393 41.0402 23.0393H35.4936C35.1403 23.0393 34.8535 23.3256 34.8535 23.6794V29.2256C34.8535 29.5793 35.1403 29.8657 35.4936 29.8657ZM36.1336 24.3194H40.4002V28.5856H36.1336V24.3194Z" fill="white"/>
<path d="M41.0419 34.1331H35.4965C35.1432 34.1331 34.8564 34.4198 34.8564 34.7731V40.3194C34.8564 40.6727 35.1432 40.9594 35.4965 40.9594H41.0419C41.3952 40.9594 41.6819 40.6727 41.6819 40.3194V34.7731C41.6819 34.4198 41.3952 34.1331 41.0419 34.1331ZM40.4018 39.6793H36.1365V35.4132H40.4018V39.6793Z" fill="white"/>
</svg>
