<svg width="64" height="64" viewBox="0 0 64 64" fill="none" xmlns="http://www.w3.org/2000/svg">
<rect width="64" height="64" rx="15" fill="#6654D4"/>
<path d="M51.6462 32.2706C51.4918 31.9534 51.11 31.822 50.7941 31.9755L46.2823 34.1674L43.2077 35.4991C42.7332 35.3767 41.5209 35.0591 40.432 34.7363L39.8979 34.5373C39.8197 34.5084 39.7393 34.4965 39.6607 34.4987C39.2831 34.3766 38.9549 34.261 38.7338 34.1636C37.6733 33.6967 35.7786 32.5993 35.015 31.9368C34.1522 31.191 31.9046 28.423 31.8821 28.3949C31.6912 28.1594 31.3608 28.0909 31.0921 28.2308C30.4738 28.5527 28.4686 29.4018 27.4069 29.0931C26.8465 28.9264 25.8094 28.3575 25.516 28.0033C25.3204 27.7678 25.1537 26.9186 25.2418 26.6474C25.4709 26.5313 26.3401 26.6784 26.7657 26.7503C27.494 26.8736 28.1829 26.9901 28.7148 26.8179C29.7506 26.4832 31.8392 24.6987 32.3426 24.2599C32.8422 24.0775 35.3071 23.2466 37.0262 23.9303C37.9331 24.2913 38.815 24.4159 39.6016 24.4159C41.3028 24.4159 42.5576 23.8313 42.6507 23.7866L48.9164 20.4382C49.2268 20.2719 49.3442 19.8858 49.1783 19.575C49.0121 19.2646 48.626 19.1468 48.3152 19.3131L42.0775 22.6471C42.0558 22.6573 39.8371 23.6752 37.4977 22.7449C35.4601 21.9336 32.8167 22.7402 32.0152 23.0217C31.1261 22.6845 28.6268 21.7903 27.5162 21.9587C26.4795 22.1177 23.4606 22.2602 22.2377 22.0344C21.7215 21.8885 17.8004 19.7668 14.3737 17.8449C14.0658 17.6727 13.6776 17.782 13.5054 18.0894C13.3332 18.3964 13.4425 18.7854 13.7495 18.9576C15.9907 20.2149 21.2802 23.1526 21.9843 23.284C23.4802 23.5613 26.6947 23.375 27.7079 23.2198C28.2088 23.1437 29.5694 23.5183 30.7604 23.9257C29.8701 24.654 28.8071 25.447 28.3223 25.6035C28.0868 25.6796 27.4724 25.5754 26.9783 25.4917C25.9676 25.3207 24.9229 25.1439 24.3106 25.7651C23.6273 26.4654 24.0367 28.2189 24.5334 28.8167C25.0457 29.4354 26.3405 30.1068 27.0467 30.3164C28.421 30.7157 30.3212 29.9894 31.2103 29.5876C31.8829 30.4036 33.4341 32.2557 34.179 32.8999C35.1085 33.7065 37.1924 34.8779 38.2188 35.3299C38.6185 35.506 39.2942 35.7262 40.0162 35.9418L43.0074 37.0562C43.1639 37.137 43.2825 37.2875 43.3603 37.5044C43.4956 37.8815 43.4683 38.385 43.2936 38.7557C43.0801 39.2048 42.6014 39.4386 42.1477 39.3731C42.058 39.3213 41.9572 39.2923 41.853 39.2881L37.7975 37.1842C37.4849 37.0218 37.0997 37.1442 36.9377 37.4568C36.7757 37.7693 36.8973 38.1545 37.2103 38.3165L41.2947 40.4349C41.3071 40.4408 41.3198 40.4442 41.3321 40.4502C41.3632 40.6117 41.3343 40.724 41.2883 40.872C41.2573 40.9715 41.2212 41.088 41.2029 41.2227C40.935 41.7177 40.3287 41.9367 39.8087 41.713L36.3854 40.2252C36.3701 40.2184 36.3543 40.2159 36.3386 40.2104C36.3182 40.2031 36.2978 40.1955 36.2774 40.1908C36.2565 40.1857 36.2353 40.1831 36.2144 40.1806C36.194 40.178 36.1741 40.1746 36.1541 40.1738C36.1324 40.1729 36.1111 40.1746 36.0899 40.1763C36.0703 40.1776 36.0507 40.178 36.0316 40.1814C36.0104 40.1848 35.9899 40.1904 35.9695 40.1959C35.9508 40.201 35.9317 40.2052 35.9134 40.2121C35.8938 40.2193 35.8756 40.2286 35.8569 40.2376C35.8386 40.2465 35.8203 40.2546 35.8029 40.2652C35.7854 40.2754 35.7697 40.2882 35.7535 40.3001C35.7365 40.3124 35.7199 40.3247 35.7042 40.3388C35.6893 40.3524 35.6761 40.3677 35.6625 40.3826C35.6481 40.3987 35.6332 40.414 35.6204 40.4315C35.6081 40.448 35.5983 40.4663 35.5873 40.4842C35.5784 40.4991 35.5681 40.5118 35.5605 40.5276C35.5579 40.5327 35.5571 40.5382 35.5545 40.5433C35.5524 40.548 35.549 40.5518 35.5473 40.5565C35.5409 40.5709 35.5384 40.5854 35.5333 40.6003C35.5256 40.6219 35.5175 40.6436 35.5124 40.6653C35.5078 40.6849 35.5056 40.7049 35.5031 40.7248C35.5001 40.7461 35.4967 40.7674 35.4963 40.7886C35.4954 40.809 35.4971 40.8294 35.4984 40.8499C35.4997 40.8703 35.5005 40.8907 35.5035 40.9111C35.5069 40.9315 35.5124 40.9515 35.5175 40.9715C35.5226 40.991 35.5273 41.0102 35.5341 41.0293C35.5414 41.0484 35.5503 41.0671 35.5592 41.0854C35.5677 41.1037 35.5762 41.122 35.5864 41.139C35.5971 41.1568 35.6098 41.1734 35.6221 41.19C35.6341 41.2066 35.646 41.2228 35.6596 41.2381C35.6736 41.2538 35.6898 41.2674 35.7059 41.2819C35.7212 41.2955 35.7357 41.3095 35.7523 41.3218C35.7697 41.3346 35.7888 41.3456 35.808 41.3567C35.8216 41.3652 35.8339 41.375 35.8484 41.3822L36.7608 41.8342C37.3021 42.0914 37.5343 42.7411 37.2779 43.2833C37.152 43.5494 36.9305 43.7506 36.6541 43.8492C36.3816 43.9466 36.0886 43.9317 35.8275 43.8075L33.2614 42.5953L33.9928 41.3546C34.6969 40.1644 34.3006 38.621 33.1101 37.9143L33.1092 37.9139C32.5777 37.6001 31.9769 37.5044 31.4114 37.5984C31.5275 36.4618 31.0092 35.3146 29.9832 34.7045C29.9823 34.7036 29.981 34.7032 29.9798 34.7023C28.9606 34.1036 27.7249 34.1887 26.7899 34.8112C26.6041 34.2584 26.2295 33.766 25.6891 33.445C24.4896 32.7409 22.9419 33.1376 22.239 34.3286L20.5289 37.2229L16.3432 34.2287C16.3283 34.218 16.3117 34.2108 16.296 34.2019C16.2807 34.1929 16.2671 34.1819 16.2509 34.1742L11.7264 31.9768C11.41 31.8233 11.0278 31.9547 10.8743 32.2719C10.7204 32.5887 10.8526 32.9705 11.1694 33.1244L15.6454 35.2989L19.9383 38.3701C19.6096 39.4548 20.0488 40.6674 21.0697 41.2695C21.4707 41.5055 21.9108 41.6178 22.3453 41.6178C22.4852 41.6178 22.6238 41.602 22.7612 41.5791C22.6404 42.7254 23.1634 43.8828 24.1996 44.4959C24.6575 44.7655 25.1682 44.9033 25.6886 44.9033C25.9535 44.9033 26.221 44.8676 26.485 44.7953C26.8099 44.7064 27.1122 44.564 27.3856 44.3799C27.5736 44.9292 27.9494 45.4178 28.4882 45.7371C28.8883 45.9727 29.3279 46.0849 29.7621 46.0849C30.6227 46.0849 31.4628 45.6444 31.9327 44.8527L32.6117 43.7L35.2816 44.9615C35.6017 45.1138 35.9449 45.1907 36.2893 45.1907C36.5563 45.1907 36.8242 45.1448 37.0836 45.0521C37.6814 44.8391 38.1606 44.4049 38.4319 43.8296C38.6198 43.4321 38.684 43.0086 38.6457 42.6L39.3031 42.8857C39.6054 43.0162 39.9213 43.0775 40.2322 43.0775C41.1489 43.0775 42.0252 42.5421 42.4143 41.6492C42.4496 41.5689 42.4674 41.4851 42.4674 41.3975C42.4691 41.3741 42.4912 41.3044 42.507 41.2534C42.5537 41.1024 42.6167 40.9005 42.6247 40.639C43.3901 40.5322 44.0908 40.0543 44.4472 39.3038C44.7678 38.6252 44.8115 37.7714 44.562 37.0754C44.4769 36.8389 44.3574 36.6344 44.2163 36.4537L46.8019 35.3337C46.8066 35.3316 46.8104 35.3286 46.8151 35.3261C46.8189 35.3244 46.8232 35.324 46.827 35.3218L51.3515 33.124C51.6679 32.9688 51.8001 32.5874 51.6462 32.2706ZM21.7173 40.1691C21.1263 39.8209 20.9273 39.0585 21.2734 38.4709L23.3373 34.977C23.5678 34.5871 23.9823 34.3707 24.4079 34.3707C24.6235 34.3707 24.8421 34.4264 25.0406 34.5429C25.6278 34.892 25.8243 35.6531 25.4782 36.2394L23.4151 39.7337C23.0681 40.3213 22.3058 40.5161 21.7173 40.1691ZM26.1483 43.5635C25.6997 43.6859 25.2379 43.626 24.8472 43.3959C24.0295 42.9121 23.7701 41.827 24.2681 40.9778L26.94 36.4597C27.2751 35.8895 27.8716 35.5697 28.4775 35.5697C28.7701 35.5697 29.0643 35.6441 29.3322 35.801C30.1447 36.2853 30.3994 37.3666 29.8998 38.2115L27.2296 42.7292C26.9864 43.143 26.6024 43.4393 26.1483 43.5635ZM30.8344 44.2021C30.4866 44.7885 29.7238 44.9832 29.1366 44.6371C28.5447 44.2867 28.3457 43.5244 28.6935 42.9372L30.7557 39.4433C30.9866 39.0538 31.4003 38.8378 31.8255 38.8378C32.042 38.8378 32.2609 38.8939 32.4608 39.0117C33.0467 39.3604 33.2423 40.1198 32.8953 40.7061L32.0301 42.1748C31.8506 42.219 31.6912 42.338 31.6061 42.5183C31.539 42.6608 31.5317 42.8147 31.57 42.9559L30.8344 44.2021Z" fill="white"/>
</svg>
