<svg width="64" height="64" viewBox="0 0 64 64" fill="none" xmlns="http://www.w3.org/2000/svg">
<rect width="64" height="64" rx="15" fill="#6654D4"/>
<path d="M45.3907 47.9364H42.918C42.7131 46.2999 42.0072 41.6227 40.3685 38.8261C38.7208 36.0115 36.0741 33.4447 34.9377 32.4075C36.0664 31.3373 38.7186 28.6786 40.3685 25.8601C42.0231 23.036 42.7273 18.2922 42.9245 16.7008H45.3911C45.7469 16.7008 46.0356 16.412 46.0356 16.0563C46.0356 15.7001 45.7469 15.4118 45.3911 15.4118H17.9768C17.621 15.4118 17.3323 15.7001 17.3323 16.0563C17.3323 16.412 17.621 16.7008 17.9768 16.7008H20.4451C20.6423 18.2926 21.3448 23.0364 22.999 25.8601C24.6518 28.6829 27.1975 31.3463 28.2661 32.408C27.1902 33.437 24.6497 36.008 22.9994 38.8261C21.3607 41.6227 20.6565 46.3003 20.4515 47.9369H17.9772C17.6214 47.9369 17.3327 48.2256 17.3327 48.5813C17.3327 48.9375 17.6214 49.2258 17.9772 49.2258H21.026H21.0268H21.0273H45.3911C45.7469 49.2258 46.0356 48.9375 46.0356 48.5813C46.0352 48.2252 45.7464 47.9364 45.3907 47.9364ZM24.1109 39.4775C26.1019 36.0785 29.5954 32.9287 29.6306 32.8973C29.7651 32.7766 29.8429 32.6052 29.845 32.4243C29.8472 32.2434 29.7728 32.0703 29.6409 31.9469C29.6057 31.9139 26.1083 28.6202 24.1109 25.2083C22.6453 22.7064 21.9618 18.3493 21.7461 16.7003H41.6235C41.4078 18.3485 40.7238 22.7039 39.2561 25.2083C37.2664 28.6081 33.5869 31.9027 33.5499 31.9353C33.4107 32.0595 33.3316 32.2378 33.3338 32.4239C33.3359 32.6103 33.4184 32.7869 33.5606 32.9076C33.5972 32.939 37.2703 36.0854 39.2565 39.477C40.7079 41.9548 41.3936 46.2513 41.6166 47.936H21.7521C21.9742 46.2526 22.6578 41.9578 24.1109 39.4775Z" fill="white"/>
<path d="M32.3285 40.1094V30.2137L38.2263 23.6001C38.3956 23.4106 38.4373 23.1395 38.3337 22.9075C38.2297 22.6755 37.9994 22.5264 37.7455 22.5264H25.6229C25.369 22.5264 25.1387 22.6755 25.0347 22.9075C24.9312 23.1395 24.9728 23.4102 25.1421 23.6001L31.0399 30.2137V40.1094L25.1065 44.7355C24.8891 44.9048 24.8035 45.1926 24.8929 45.453C24.9827 45.7129 25.2272 45.8878 25.5026 45.8878H37.8658C38.1412 45.8878 38.3857 45.7129 38.4755 45.453C38.5649 45.1926 38.4794 44.9043 38.262 44.7355L32.3285 40.1094ZM36.3066 23.8158L31.6836 28.9999L27.0605 23.8158H36.3066ZM27.3767 44.5993L31.6836 41.2416L35.9904 44.5993H27.3767Z" fill="white"/>
</svg>
