<svg width="64" height="64" viewBox="0 0 64 64" fill="none" xmlns="http://www.w3.org/2000/svg">
<rect width="64" height="64" rx="15" fill="#6654D4"/>
<path d="M45.037 27.1322H43.0887C42.6817 21.3692 37.8659 16.8039 32.0014 16.8039C26.1364 16.8039 21.3211 21.3692 20.9136 27.1322H18.9635C18.6098 27.1322 18.3235 27.4185 18.3235 27.7722V46.556C18.3235 46.9093 18.6098 47.196 18.9635 47.196H45.037C45.3903 47.196 45.6771 46.9093 45.6771 46.556V27.7722C45.6771 27.4185 45.3903 27.1322 45.037 27.1322ZM32.0009 18.084C37.1597 18.084 41.4007 22.0758 41.8052 27.1322H22.1966C22.6012 22.0758 26.8421 18.084 32.0009 18.084ZM44.397 45.9159H19.6032V28.4123H44.3961V45.9159H44.397Z" fill="white"/>
<path d="M31.9979 29.9215C31.9949 29.9215 31.9919 29.9215 31.9889 29.9215C30.1153 29.9279 28.5945 31.4572 28.5996 33.3308C28.6022 34.4407 29.1441 35.4678 30.0376 36.098V41.7373C30.0376 42.8194 30.9175 43.6996 31.9991 43.6996C33.0804 43.6996 33.9607 42.8198 33.9607 41.7373V36.0988C34.8597 35.4635 35.4029 34.427 35.3987 33.3125C35.3965 32.4045 35.0402 31.5515 34.3963 30.911C33.7542 30.2727 32.9033 29.9215 31.9979 29.9215ZM33.0211 35.1793C32.8589 35.2685 32.7442 35.423 32.7045 35.6034L32.6955 35.6457C32.6861 35.6901 32.681 35.7361 32.681 35.7818V41.7373C32.681 42.1136 32.3755 42.4195 31.9996 42.4195C31.6236 42.4195 31.3181 42.1136 31.3181 41.7373V35.8565C31.3629 35.5932 31.2392 35.3193 30.9913 35.1857C30.3077 34.8162 29.8819 34.1044 29.8802 33.3279C29.8772 32.16 30.8253 31.2059 31.9936 31.202C32.5466 31.2025 33.0928 31.4197 33.4939 31.819C33.8954 32.2184 34.1177 32.7497 34.119 33.3168C34.1215 34.0908 33.7004 34.8042 33.0211 35.1793Z" fill="white"/>
</svg>
