<svg width="64" height="64" viewBox="0 0 64 64" fill="none" xmlns="http://www.w3.org/2000/svg">
<rect width="64" height="64" rx="15" fill="#6654D4"/>
<path d="M35.4245 40.4258L41.7995 30.175C41.8204 30.1419 41.8378 30.107 41.8514 30.0709C42.9523 28.2756 43.5335 26.2249 43.5335 24.1312C43.5335 17.8501 38.4234 12.74 32.1423 12.74C25.8612 12.74 20.7507 17.8501 20.7507 24.1312C20.7507 26.2253 21.3328 28.2769 22.4345 30.0734C22.4473 30.1049 22.4621 30.1355 22.48 30.1652L28.6263 40.4513C23.8551 41.1257 20.7175 43.0876 20.7175 45.4675C20.7175 48.4162 25.7286 50.7255 32.1253 50.7255C38.5221 50.7255 43.5331 48.4158 43.5331 45.4675C43.5335 43.0765 40.2497 41.0709 35.4245 40.4258ZM23.5796 29.499C22.5633 27.8815 22.0263 26.0255 22.0263 24.1312C22.0263 18.5534 26.5641 14.0156 32.1423 14.0156C37.7201 14.0156 42.2579 18.5534 42.2579 24.1312C42.2579 26.0263 41.7209 27.8823 40.7051 29.499C40.6838 29.533 40.6664 29.5683 40.6523 29.6048L33.9171 40.4335C33.8159 40.5887 33.7959 40.624 33.6722 40.8272L31.9714 43.5621L23.6365 29.6138C23.6217 29.5742 23.6025 29.5355 23.5796 29.499ZM32.1257 49.4499C26.1546 49.4499 21.9936 47.3507 21.9936 45.4675C21.9936 43.7581 25.1273 42.1475 29.3424 41.6487L31.4131 45.1145C31.5275 45.3055 31.7324 45.4232 31.9548 45.4249C31.9565 45.4249 31.9586 45.4249 31.9603 45.4249C32.1806 45.4249 32.3855 45.311 32.502 45.1239L34.6791 41.6236C38.9613 42.0875 42.2575 43.739 42.2575 45.4675C42.2579 47.3511 38.0969 49.4499 32.1257 49.4499Z" fill="white"/>
<path d="M36.2677 24.1312C36.2677 21.8475 34.4096 19.9893 32.1258 19.9893C29.842 19.9893 27.9839 21.8475 27.9839 24.1312C27.9839 26.415 29.842 28.2731 32.1258 28.2731C34.4096 28.2731 36.2677 26.415 36.2677 24.1312ZM29.2595 24.1312C29.2595 22.5507 30.5453 21.2649 32.1258 21.2649C33.7063 21.2649 34.9921 22.5507 34.9921 24.1312C34.9921 25.7117 33.7067 26.9975 32.1258 26.9975C30.5449 26.9975 29.2595 25.7117 29.2595 24.1312Z" fill="white"/>
</svg>
